# xmcd CD database file
#
# Track frame offsets:
#	150
#	18982
#	38172
#
# Disc length: 757 seconds
#
# Revision: 0
# Processed by: cddbd v1.5PL3 Copyright (c) Steve Scherf et al.
# Submitted via: CDex 1.50
#
DISCID=1902f303
DTITLE=Qlair - 秋の貝殻
DYEAR=1992
DGENRE=JPop
TTITLE0=秋の貝殻
TTITLE1=新しいシャツ
TTITLE2=秋の貝殻 (ｶﾗｵｹ)
EXTD=YEAR: 1992/10/21
EXTT0=
EXTT1=
EXTT2=
PLAYORDER=
